<mxfile host="app.diagrams.net" modified="2022-06-05T22:10:43.058Z" agent="5.0 (Windows NT 10.0; Win64; x64) AppleWebKit/537.36 (KHTML, like Gecko) Chrome/102.0.0.0 Safari/537.36" etag="Dc8ovURveNqWXEXMBWCf" version="18.1.3" type="github">
  <diagram id="T6bf9l7Ml7d_vDEy41i0" name="Page-1">
    <mxGraphModel dx="1422" dy="832" grid="1" gridSize="10" guides="1" tooltips="1" connect="1" arrows="1" fold="1" page="1" pageScale="1" pageWidth="827" pageHeight="1169" math="0" shadow="0">
      <root>
        <mxCell id="0" />
        <mxCell id="1" parent="0" />
        <mxCell id="kvwJAK5XvjQ-GY-1os86-18" value="" style="endArrow=none;html=1;rounded=0;entryX=0.5;entryY=0;entryDx=0;entryDy=0;exitX=0.5;exitY=0;exitDx=0;exitDy=0;startArrow=none;" parent="1" source="qTgdtimCsJ4_vi28gznx-4" target="qTgdtimCsJ4_vi28gznx-29" edge="1">
          <mxGeometry width="50" height="50" relative="1" as="geometry">
            <mxPoint x="414" y="190" as="sourcePoint" />
            <mxPoint x="440" y="180" as="targetPoint" />
          </mxGeometry>
        </mxCell>
        <mxCell id="qTgdtimCsJ4_vi28gznx-1" value="c" style="ellipse;whiteSpace=wrap;html=1;" parent="1" vertex="1">
          <mxGeometry x="387" width="54" height="40" as="geometry" />
        </mxCell>
        <mxCell id="qTgdtimCsJ4_vi28gznx-6" value="PROVE != 0Â  || (PROVE&lt;999 &amp;&amp; PROVE&gt;10000)" style="swimlane;" parent="1" vertex="1">
          <mxGeometry x="74" y="160" width="686" height="850" as="geometry" />
        </mxCell>
        <mxCell id="kIGGIpSCVBMsrQz8wcXm-8" value="" style="endArrow=none;html=1;rounded=0;entryX=0.5;entryY=1;entryDx=0;entryDy=0;exitX=0.5;exitY=0;exitDx=0;exitDy=0;" parent="qTgdtimCsJ4_vi28gznx-6" source="kvwJAK5XvjQ-GY-1os86-3" target="qTgdtimCsJ4_vi28gznx-4" edge="1">
          <mxGeometry width="50" height="50" relative="1" as="geometry">
            <mxPoint x="316" y="120" as="sourcePoint" />
            <mxPoint x="366" y="70" as="targetPoint" />
          </mxGeometry>
        </mxCell>
        <mxCell id="qTgdtimCsJ4_vi28gznx-4" value="PROVEACT = PROVE" style="rounded=0;whiteSpace=wrap;html=1;" parent="qTgdtimCsJ4_vi28gznx-6" vertex="1">
          <mxGeometry x="195" y="50" width="290" height="20" as="geometry" />
        </mxCell>
        <mxCell id="qTgdtimCsJ4_vi28gznx-7" value="PROVEE == PROVEACT" style="swimlane;" parent="qTgdtimCsJ4_vi28gznx-6" vertex="1">
          <mxGeometry x="30" y="90" width="620" height="630" as="geometry" />
        </mxCell>
        <mxCell id="qTgdtimCsJ4_vi28gznx-55" value="&lt;br style=&quot;&quot;&gt;&lt;span style=&quot;background-color: rgb(255, 255, 255);&quot;&gt;D, M, PROVE, TF, PRODU, C, PU&lt;/span&gt;" style="shape=trapezoid;perimeter=trapezoidPerimeter;whiteSpace=wrap;html=1;fixedSize=1;flipV=1;" parent="qTgdtimCsJ4_vi28gznx-7" vertex="1">
          <mxGeometry x="140" y="580" width="312" height="30" as="geometry" />
        </mxCell>
        <mxCell id="kvwJAK5XvjQ-GY-1os86-3" value="TF&amp;nbsp;" style="rhombus;whiteSpace=wrap;html=1;" parent="qTgdtimCsJ4_vi28gznx-7" vertex="1">
          <mxGeometry x="235" y="120" width="150" height="40" as="geometry" />
        </mxCell>
        <mxCell id="kvwJAK5XvjQ-GY-1os86-15" value="ITFA = MONTO + ITFA" style="rounded=0;whiteSpace=wrap;html=1;" parent="qTgdtimCsJ4_vi28gznx-7" vertex="1">
          <mxGeometry x="26" y="160" width="137" height="20" as="geometry" />
        </mxCell>
        <mxCell id="kvwJAK5XvjQ-GY-1os86-6" value="ITFC = MONTO + ITFC" style="rounded=0;whiteSpace=wrap;html=1;" parent="qTgdtimCsJ4_vi28gznx-7" vertex="1">
          <mxGeometry x="426" y="160" width="133" height="20" as="geometry" />
        </mxCell>
        <mxCell id="kvwJAK5XvjQ-GY-1os86-7" value="" style="endArrow=none;html=1;rounded=0;entryX=0;entryY=0.5;entryDx=0;entryDy=0;" parent="qTgdtimCsJ4_vi28gznx-7" target="kvwJAK5XvjQ-GY-1os86-3" edge="1">
          <mxGeometry width="50" height="50" relative="1" as="geometry">
            <mxPoint x="95.5" y="160" as="sourcePoint" />
            <mxPoint x="300" y="120" as="targetPoint" />
            <Array as="points">
              <mxPoint x="95.5" y="140" />
            </Array>
          </mxGeometry>
        </mxCell>
        <mxCell id="kvwJAK5XvjQ-GY-1os86-16" value="MONTO = PU * C" style="rounded=0;whiteSpace=wrap;html=1;" parent="qTgdtimCsJ4_vi28gznx-7" vertex="1">
          <mxGeometry x="258" y="40" width="110" height="20" as="geometry" />
        </mxCell>
        <mxCell id="kvwJAK5XvjQ-GY-1os86-5" value="ITFB = MONTO + ITFB" style="rounded=0;whiteSpace=wrap;html=1;" parent="qTgdtimCsJ4_vi28gznx-7" vertex="1">
          <mxGeometry x="231" y="200" width="130" height="20" as="geometry" />
        </mxCell>
        <mxCell id="kvwJAK5XvjQ-GY-1os86-20" value="MMAX &amp;lt; MONTO" style="rhombus;whiteSpace=wrap;html=1;" parent="qTgdtimCsJ4_vi28gznx-7" vertex="1">
          <mxGeometry x="221" y="290" width="150" height="40" as="geometry" />
        </mxCell>
        <mxCell id="kvwJAK5XvjQ-GY-1os86-19" value="MMAX = MONTO" style="rounded=0;whiteSpace=wrap;html=1;" parent="qTgdtimCsJ4_vi28gznx-7" vertex="1">
          <mxGeometry x="96" y="320" width="120" height="20" as="geometry" />
        </mxCell>
        <mxCell id="kvwJAK5XvjQ-GY-1os86-24" value="NUMPROVEMAX = PROVE" style="rounded=0;whiteSpace=wrap;html=1;" parent="qTgdtimCsJ4_vi28gznx-7" vertex="1">
          <mxGeometry x="76" y="360" width="160" height="20" as="geometry" />
        </mxCell>
        <mxCell id="kvwJAK5XvjQ-GY-1os86-57" value="" style="endArrow=none;html=1;rounded=0;entryX=0;entryY=0.5;entryDx=0;entryDy=0;exitX=0.5;exitY=0;exitDx=0;exitDy=0;" parent="qTgdtimCsJ4_vi28gznx-7" source="kvwJAK5XvjQ-GY-1os86-19" target="kvwJAK5XvjQ-GY-1os86-20" edge="1">
          <mxGeometry width="50" height="50" relative="1" as="geometry">
            <mxPoint x="286" y="370" as="sourcePoint" />
            <mxPoint x="336" y="320" as="targetPoint" />
            <Array as="points">
              <mxPoint x="156" y="310" />
            </Array>
          </mxGeometry>
        </mxCell>
        <mxCell id="kvwJAK5XvjQ-GY-1os86-58" value="" style="endArrow=none;html=1;rounded=0;entryX=0.5;entryY=1;entryDx=0;entryDy=0;exitX=0.5;exitY=0;exitDx=0;exitDy=0;" parent="qTgdtimCsJ4_vi28gznx-7" source="kvwJAK5XvjQ-GY-1os86-24" target="kvwJAK5XvjQ-GY-1os86-19" edge="1">
          <mxGeometry width="50" height="50" relative="1" as="geometry">
            <mxPoint x="286" y="370" as="sourcePoint" />
            <mxPoint x="336" y="320" as="targetPoint" />
          </mxGeometry>
        </mxCell>
        <mxCell id="kvwJAK5XvjQ-GY-1os86-63" value="A" style="ellipse;whiteSpace=wrap;html=1;fillColor=#fff2cc;strokeColor=#d6b656;" parent="qTgdtimCsJ4_vi28gznx-7" vertex="1">
          <mxGeometry x="56" y="290" width="30.5" height="30" as="geometry" />
        </mxCell>
        <mxCell id="kvwJAK5XvjQ-GY-1os86-64" value="B" style="ellipse;whiteSpace=wrap;html=1;fillColor=#fff2cc;strokeColor=#d6b656;" parent="qTgdtimCsJ4_vi28gznx-7" vertex="1">
          <mxGeometry x="75.5" y="100" width="31" height="30" as="geometry" />
        </mxCell>
        <mxCell id="kvwJAK5XvjQ-GY-1os86-21" value="M == 8&amp;nbsp; &amp;amp;&amp;amp; MMIN &amp;gt; MONTO" style="rhombus;whiteSpace=wrap;html=1;" parent="qTgdtimCsJ4_vi28gznx-7" vertex="1">
          <mxGeometry x="201" y="400" width="190" height="50" as="geometry" />
        </mxCell>
        <mxCell id="kvwJAK5XvjQ-GY-1os86-22" value="MMIN = MONTO" style="rounded=0;whiteSpace=wrap;html=1;" parent="qTgdtimCsJ4_vi28gznx-7" vertex="1">
          <mxGeometry x="81" y="450" width="120" height="20" as="geometry" />
        </mxCell>
        <mxCell id="kvwJAK5XvjQ-GY-1os86-23" value="NUMPRODUMIN = PRODU" style="rounded=0;whiteSpace=wrap;html=1;" parent="qTgdtimCsJ4_vi28gznx-7" vertex="1">
          <mxGeometry x="56" y="485" width="170" height="20" as="geometry" />
        </mxCell>
        <mxCell id="kvwJAK5XvjQ-GY-1os86-49" value="" style="endArrow=none;html=1;rounded=0;entryX=0;entryY=0.5;entryDx=0;entryDy=0;" parent="qTgdtimCsJ4_vi28gznx-7" target="kvwJAK5XvjQ-GY-1os86-21" edge="1">
          <mxGeometry width="50" height="50" relative="1" as="geometry">
            <mxPoint x="136" y="450" as="sourcePoint" />
            <mxPoint x="321" y="460" as="targetPoint" />
            <Array as="points">
              <mxPoint x="136" y="425" />
            </Array>
          </mxGeometry>
        </mxCell>
        <mxCell id="kvwJAK5XvjQ-GY-1os86-52" value="" style="endArrow=none;html=1;rounded=0;entryX=0.5;entryY=1;entryDx=0;entryDy=0;exitX=0.5;exitY=0;exitDx=0;exitDy=0;" parent="qTgdtimCsJ4_vi28gznx-7" source="kvwJAK5XvjQ-GY-1os86-23" target="kvwJAK5XvjQ-GY-1os86-22" edge="1">
          <mxGeometry width="50" height="50" relative="1" as="geometry">
            <mxPoint x="271" y="510" as="sourcePoint" />
            <mxPoint x="321" y="460" as="targetPoint" />
          </mxGeometry>
        </mxCell>
        <mxCell id="kvwJAK5XvjQ-GY-1os86-54" value="" style="endArrow=none;html=1;rounded=0;entryX=1;entryY=0.5;entryDx=0;entryDy=0;" parent="qTgdtimCsJ4_vi28gznx-7" target="kvwJAK5XvjQ-GY-1os86-21" edge="1">
          <mxGeometry width="50" height="50" relative="1" as="geometry">
            <mxPoint x="391.5" y="510" as="sourcePoint" />
            <mxPoint x="321" y="460" as="targetPoint" />
          </mxGeometry>
        </mxCell>
        <mxCell id="kvwJAK5XvjQ-GY-1os86-55" value="" style="endArrow=none;html=1;rounded=0;" parent="qTgdtimCsJ4_vi28gznx-7" edge="1">
          <mxGeometry width="50" height="50" relative="1" as="geometry">
            <mxPoint x="283.5" y="510" as="sourcePoint" />
            <mxPoint x="396.5" y="510" as="targetPoint" />
          </mxGeometry>
        </mxCell>
        <mxCell id="kvwJAK5XvjQ-GY-1os86-74" value="C" style="ellipse;whiteSpace=wrap;html=1;fillColor=#fff2cc;strokeColor=#d6b656;" parent="qTgdtimCsJ4_vi28gznx-7" vertex="1">
          <mxGeometry x="56" y="410" width="30" height="30" as="geometry" />
        </mxCell>
        <mxCell id="kvwJAK5XvjQ-GY-1os86-76" value="CCOMP ++" style="rounded=0;whiteSpace=wrap;html=1;" parent="qTgdtimCsJ4_vi28gznx-7" vertex="1">
          <mxGeometry x="220.5" y="70" width="180" height="20" as="geometry" />
        </mxCell>
        <mxCell id="kvwJAK5XvjQ-GY-1os86-79" value="D" style="ellipse;whiteSpace=wrap;html=1;fillColor=#fff2cc;strokeColor=#d6b656;" parent="qTgdtimCsJ4_vi28gznx-7" vertex="1">
          <mxGeometry x="163" y="65" width="30" height="30" as="geometry" />
        </mxCell>
        <mxCell id="IgIp55rTm02-WlgoGPjJ-1" value="" style="endArrow=none;html=1;rounded=0;entryX=0.5;entryY=1;entryDx=0;entryDy=0;" edge="1" parent="qTgdtimCsJ4_vi28gznx-7" source="kvwJAK5XvjQ-GY-1os86-5" target="kvwJAK5XvjQ-GY-1os86-3">
          <mxGeometry width="50" height="50" relative="1" as="geometry">
            <mxPoint x="286" y="300" as="sourcePoint" />
            <mxPoint x="336" y="250" as="targetPoint" />
            <Array as="points">
              <mxPoint x="296" y="180" />
              <mxPoint x="310" y="180" />
            </Array>
          </mxGeometry>
        </mxCell>
        <mxCell id="IgIp55rTm02-WlgoGPjJ-3" value="" style="endArrow=none;html=1;rounded=0;entryX=1;entryY=0.5;entryDx=0;entryDy=0;" edge="1" parent="qTgdtimCsJ4_vi28gznx-7" target="kvwJAK5XvjQ-GY-1os86-3">
          <mxGeometry width="50" height="50" relative="1" as="geometry">
            <mxPoint x="496" y="160" as="sourcePoint" />
            <mxPoint x="336" y="250" as="targetPoint" />
            <Array as="points">
              <mxPoint x="496" y="140" />
            </Array>
          </mxGeometry>
        </mxCell>
        <mxCell id="IgIp55rTm02-WlgoGPjJ-2" value="" style="endArrow=none;html=1;rounded=0;entryX=0.5;entryY=1;entryDx=0;entryDy=0;exitX=0.5;exitY=0;exitDx=0;exitDy=0;" edge="1" parent="qTgdtimCsJ4_vi28gznx-7" source="kvwJAK5XvjQ-GY-1os86-20" target="kvwJAK5XvjQ-GY-1os86-15">
          <mxGeometry width="50" height="50" relative="1" as="geometry">
            <mxPoint x="286" y="300" as="sourcePoint" />
            <mxPoint x="336" y="250" as="targetPoint" />
            <Array as="points">
              <mxPoint x="296" y="260" />
              <mxPoint x="96" y="260" />
            </Array>
          </mxGeometry>
        </mxCell>
        <mxCell id="qTgdtimCsJ4_vi28gznx-11" value="D, M, PROVE, TF, PRODU, C, PU, MMAX, NUMPROVEMAX, CCOMP" style="shape=trapezoid;perimeter=trapezoidPerimeter;whiteSpace=wrap;html=1;fixedSize=1;" parent="qTgdtimCsJ4_vi28gznx-6" vertex="1">
          <mxGeometry x="30" y="740" width="620" height="35" as="geometry" />
        </mxCell>
        <mxCell id="kvwJAK5XvjQ-GY-1os86-80" value="" style="endArrow=none;html=1;rounded=0;entryX=0.5;entryY=1;entryDx=0;entryDy=0;" parent="qTgdtimCsJ4_vi28gznx-6" target="qTgdtimCsJ4_vi28gznx-55" edge="1">
          <mxGeometry width="50" height="50" relative="1" as="geometry">
            <mxPoint x="326" y="740" as="sourcePoint" />
            <mxPoint x="209" y="650" as="targetPoint" />
          </mxGeometry>
        </mxCell>
        <mxCell id="kvwJAK5XvjQ-GY-1os86-78" value="CCOMP = 0, MMAX = 0, NUMPROVEMAX = 0" style="rounded=0;whiteSpace=wrap;html=1;" parent="qTgdtimCsJ4_vi28gznx-6" vertex="1">
          <mxGeometry x="195" y="790" width="290" height="20" as="geometry" />
        </mxCell>
        <mxCell id="kvwJAK5XvjQ-GY-1os86-77" value="" style="endArrow=none;html=1;rounded=0;entryX=0.5;entryY=1;entryDx=0;entryDy=0;startArrow=none;" parent="qTgdtimCsJ4_vi28gznx-6" source="kvwJAK5XvjQ-GY-1os86-78" target="qTgdtimCsJ4_vi28gznx-11" edge="1">
          <mxGeometry width="50" height="50" relative="1" as="geometry">
            <mxPoint x="339" y="870" as="sourcePoint" />
            <mxPoint x="339" y="830" as="targetPoint" />
          </mxGeometry>
        </mxCell>
        <mxCell id="qTgdtimCsJ4_vi28gznx-12" value="F" style="ellipse;whiteSpace=wrap;html=1;" parent="1" vertex="1">
          <mxGeometry x="382" y="1090" width="70" height="30" as="geometry" />
        </mxCell>
        <mxCell id="qTgdtimCsJ4_vi28gznx-29" value="&lt;span style=&quot;&quot;&gt;D, M, PROVE, TF, PRODU, C, PU,&amp;nbsp;&lt;/span&gt;" style="shape=trapezoid;perimeter=trapezoidPerimeter;whiteSpace=wrap;html=1;fixedSize=1;direction=west;" parent="1" vertex="1">
          <mxGeometry x="294" y="60" width="240" height="30" as="geometry" />
        </mxCell>
        <mxCell id="qTgdtimCsJ4_vi28gznx-50" value="" style="endArrow=none;html=1;rounded=0;exitX=0.5;exitY=1;exitDx=0;exitDy=0;entryX=0.5;entryY=0;entryDx=0;entryDy=0;startArrow=none;" parent="1" source="kvwJAK5XvjQ-GY-1os86-70" target="qTgdtimCsJ4_vi28gznx-12" edge="1">
          <mxGeometry width="50" height="50" relative="1" as="geometry">
            <mxPoint x="411" y="1110" as="sourcePoint" />
            <mxPoint x="440" y="700" as="targetPoint" />
          </mxGeometry>
        </mxCell>
        <mxCell id="qTgdtimCsJ4_vi28gznx-52" value="" style="endArrow=none;html=1;rounded=0;exitX=0.5;exitY=1;exitDx=0;exitDy=0;entryX=0.5;entryY=1;entryDx=0;entryDy=0;" parent="1" source="qTgdtimCsJ4_vi28gznx-29" target="qTgdtimCsJ4_vi28gznx-1" edge="1">
          <mxGeometry width="50" height="50" relative="1" as="geometry">
            <mxPoint x="150" y="310" as="sourcePoint" />
            <mxPoint x="410" y="40" as="targetPoint" />
          </mxGeometry>
        </mxCell>
        <mxCell id="kvwJAK5XvjQ-GY-1os86-59" value="" style="endArrow=none;html=1;rounded=0;entryX=1;entryY=0.5;entryDx=0;entryDy=0;" parent="1" target="kvwJAK5XvjQ-GY-1os86-20" edge="1">
          <mxGeometry width="50" height="50" relative="1" as="geometry">
            <mxPoint x="475" y="630" as="sourcePoint" />
            <mxPoint x="440" y="560" as="targetPoint" />
          </mxGeometry>
        </mxCell>
        <mxCell id="kvwJAK5XvjQ-GY-1os86-60" value="" style="endArrow=none;html=1;rounded=0;" parent="1" edge="1">
          <mxGeometry width="50" height="50" relative="1" as="geometry">
            <mxPoint x="260" y="630" as="sourcePoint" />
            <mxPoint x="480" y="630" as="targetPoint" />
          </mxGeometry>
        </mxCell>
        <mxCell id="kvwJAK5XvjQ-GY-1os86-61" value="" style="endArrow=none;html=1;rounded=0;exitX=0.5;exitY=1;exitDx=0;exitDy=0;" parent="1" source="kvwJAK5XvjQ-GY-1os86-24" edge="1">
          <mxGeometry width="50" height="50" relative="1" as="geometry">
            <mxPoint x="390" y="610" as="sourcePoint" />
            <mxPoint x="260" y="630" as="targetPoint" />
          </mxGeometry>
        </mxCell>
        <mxCell id="kvwJAK5XvjQ-GY-1os86-67" value="" style="endArrow=none;html=1;rounded=0;exitX=0.5;exitY=0;exitDx=0;exitDy=0;" parent="1" source="kvwJAK5XvjQ-GY-1os86-21" edge="1">
          <mxGeometry width="50" height="50" relative="1" as="geometry">
            <mxPoint x="220" y="730" as="sourcePoint" />
            <mxPoint x="400" y="630" as="targetPoint" />
          </mxGeometry>
        </mxCell>
        <mxCell id="kvwJAK5XvjQ-GY-1os86-68" value="" style="endArrow=none;html=1;rounded=0;" parent="1" edge="1">
          <mxGeometry width="50" height="50" relative="1" as="geometry">
            <mxPoint x="240" y="760" as="sourcePoint" />
            <mxPoint x="390" y="760" as="targetPoint" />
          </mxGeometry>
        </mxCell>
        <mxCell id="kvwJAK5XvjQ-GY-1os86-69" value="" style="endArrow=none;html=1;rounded=0;entryX=0.5;entryY=1;entryDx=0;entryDy=0;" parent="1" target="kvwJAK5XvjQ-GY-1os86-23" edge="1">
          <mxGeometry width="50" height="50" relative="1" as="geometry">
            <mxPoint x="245" y="760" as="sourcePoint" />
            <mxPoint x="270" y="580" as="targetPoint" />
          </mxGeometry>
        </mxCell>
        <mxCell id="kvwJAK5XvjQ-GY-1os86-71" value="&lt;span style=&quot;&quot;&gt;PROVEACT = 0, ITFA = 0, ITFB = 0, ITFC = 0, MMIN = 0, MMAX= 0, MONTO = 0 NUMPROVE = 0, NUMPROVEMAX = 0, NUMPRODUMIN = 0,&amp;nbsp; CCOMP = 0&amp;nbsp;&lt;/span&gt;" style="rounded=0;whiteSpace=wrap;html=1;" parent="1" vertex="1">
          <mxGeometry x="14" y="110" width="800" height="30" as="geometry" />
        </mxCell>
        <mxCell id="kvwJAK5XvjQ-GY-1os86-73" value="" style="endArrow=none;html=1;rounded=0;exitX=0.5;exitY=0;exitDx=0;exitDy=0;" parent="1" source="qTgdtimCsJ4_vi28gznx-55" edge="1">
          <mxGeometry width="50" height="50" relative="1" as="geometry">
            <mxPoint x="220" y="730" as="sourcePoint" />
            <mxPoint x="400.5" y="760" as="targetPoint" />
          </mxGeometry>
        </mxCell>
        <mxCell id="IgIp55rTm02-WlgoGPjJ-4" value="" style="endArrow=none;html=1;rounded=0;entryX=0.5;entryY=1;entryDx=0;entryDy=0;" edge="1" parent="1" target="kvwJAK5XvjQ-GY-1os86-5">
          <mxGeometry width="50" height="50" relative="1" as="geometry">
            <mxPoint x="400" y="510" as="sourcePoint" />
            <mxPoint x="440" y="500" as="targetPoint" />
          </mxGeometry>
        </mxCell>
        <mxCell id="IgIp55rTm02-WlgoGPjJ-5" value="" style="endArrow=none;html=1;rounded=0;" edge="1" parent="1">
          <mxGeometry width="50" height="50" relative="1" as="geometry">
            <mxPoint x="400" y="510" as="sourcePoint" />
            <mxPoint x="600" y="510" as="targetPoint" />
          </mxGeometry>
        </mxCell>
        <mxCell id="IgIp55rTm02-WlgoGPjJ-6" value="" style="endArrow=none;html=1;rounded=0;entryX=0.564;entryY=1.15;entryDx=0;entryDy=0;entryPerimeter=0;" edge="1" parent="1" target="kvwJAK5XvjQ-GY-1os86-6">
          <mxGeometry width="50" height="50" relative="1" as="geometry">
            <mxPoint x="605" y="510" as="sourcePoint" />
            <mxPoint x="440" y="500" as="targetPoint" />
            <Array as="points">
              <mxPoint x="590" y="510" />
              <mxPoint x="605" y="510" />
            </Array>
          </mxGeometry>
        </mxCell>
        <mxCell id="kvwJAK5XvjQ-GY-1os86-70" value="&lt;br&gt;&lt;span style=&quot;color: rgb(0, 0, 0); font-family: Helvetica; font-size: 12px; font-style: normal; font-variant-ligatures: normal; font-variant-caps: normal; font-weight: 400; letter-spacing: normal; orphans: 2; text-align: center; text-indent: 0px; text-transform: none; widows: 2; word-spacing: 0px; -webkit-text-stroke-width: 0px; background-color: rgb(248, 249, 250); text-decoration-thickness: initial; text-decoration-style: initial; text-decoration-color: initial; float: none; display: inline !important;&quot;&gt;ITFA. ITFB, ITFC.&amp;nbsp;&lt;/span&gt;NUMPRODUMIN, MMIN" style="shape=trapezoid;perimeter=trapezoidPerimeter;whiteSpace=wrap;html=1;fixedSize=1;" parent="1" vertex="1">
          <mxGeometry x="262" y="1040" width="310" height="30" as="geometry" />
        </mxCell>
        <mxCell id="IgIp55rTm02-WlgoGPjJ-7" value="" style="endArrow=none;html=1;rounded=0;exitX=0.5;exitY=1;exitDx=0;exitDy=0;entryX=0.5;entryY=0;entryDx=0;entryDy=0;startArrow=none;" edge="1" parent="1" source="qTgdtimCsJ4_vi28gznx-6" target="kvwJAK5XvjQ-GY-1os86-70">
          <mxGeometry width="50" height="50" relative="1" as="geometry">
            <mxPoint x="417" y="1030" as="sourcePoint" />
            <mxPoint x="417" y="1130" as="targetPoint" />
          </mxGeometry>
        </mxCell>
      </root>
    </mxGraphModel>
  </diagram>
</mxfile>
